<?xml version="1.0" encoding="utf-8"?>
<!-- Generator: Adobe Illustrator 27.2.0, SVG Export Plug-In . SVG Version: 6.00 Build 0)  -->
<svg version="1.1" id="Ebene_1" xmlns="http://www.w3.org/2000/svg" xmlns:xlink="http://www.w3.org/1999/xlink" x="0px" y="0px"
	 viewBox="0 0 362.54 93.74" style="enable-background:new 0 0 362.54 93.74;" xml:space="preserve">
<style type="text/css">
	.st0{fill:none;stroke:#000000;}
	.st1{fill:#FFFFFF;}
	.st2{fill:#B1B2B3;}
	.st3{fill:none;stroke:#000000;stroke-linecap:round;stroke-miterlimit:10;}
</style>
<g>
	<path d="M32.97,45.65h8.27c2.92,0,4.33-1.46,4.33-3.84s-1.41-3.84-4.33-3.84h-8.27V45.65z M47.37,66.62L42.22,56.6h-9.24v10.02
		H18.28V25.75h24.04c11.48,0,18,4.77,18,15.96c0,5.35-2.33,9.24-5.59,11.68l7.1,13.24H47.37z"/>
	<polygon points="66.71,25.75 66.71,66.62 104.33,66.62 104.33,54.85 81.41,54.85 81.41,50.91 103.45,50.91 103.45,41.47 
		81.41,41.47 81.41,37.48 104.33,37.48 104.33,25.75 	"/>
	<polygon points="109.65,25.75 109.65,38.01 124.1,38.01 124.1,66.62 138.84,66.62 138.84,38.01 153.34,38.01 153.34,25.75 	"/>
	<path d="M158.62,48.53V25.76h14.84v22.43c0,4.57,1.9,7.49,6.81,7.49c4.91,0,6.91-2.92,6.91-7.49V25.76h14.74v22.67
		c0,13.53-7.1,19.56-21.65,19.56C165.73,67.99,158.62,61.95,158.62,48.53"/>
	<polygon points="237.42,25.75 237.42,46.04 236.05,46.04 224.28,25.75 207.45,25.75 207.45,66.62 221.8,66.62 221.8,46.34 
		223.11,46.34 235.28,66.62 251.77,66.62 251.77,25.75 	"/>
	<polygon points="257.29,25.75 257.29,66.62 294.9,66.62 294.9,54.85 271.99,54.85 271.99,50.91 294.03,50.91 294.03,41.47 
		271.99,41.47 271.99,37.48 294.9,37.48 294.9,25.75 	"/>
	<path d="M329.47,46.19c0-6.13-3.55-8.12-7.88-8.12h-6.33l-0.05,16.25h6.37C325.92,54.31,329.47,52.27,329.47,46.19 M344.26,46.19
		c0,11.78-5.79,20.43-22.67,20.43h-21.12V25.75h21.12C338.47,25.75,344.26,34.37,344.26,46.19"/>
</g>
</svg>
