<?xml version="1.0" encoding="utf-8"?>
<!-- Generator: Adobe Illustrator 27.2.0, SVG Export Plug-In . SVG Version: 6.00 Build 0)  -->
<svg version="1.1" id="Ebene_1" xmlns="http://www.w3.org/2000/svg" xmlns:xlink="http://www.w3.org/1999/xlink" x="0px" y="0px"
	 viewBox="0 0 85.52 93.74" style="enable-background:new 0 0 85.52 93.74;" xml:space="preserve">
<style type="text/css">
	.st0{fill:none;stroke:#000000;}
	.st1{fill:#FFFFFF;}
	.st2{fill:#B1B2B3;}
	.st3{fill:none;stroke:#000000;stroke-linecap:round;stroke-miterlimit:10;}
</style>
<rect x="-918.56" y="-6.83" style="fill:none;" width="81.35" height="190.46"/>
<text transform="matrix(1 0 0 1 -918.5565 1.9338)"><tspan x="0" y="0" style="font-family:'Gotham-UltraItalic'; font-size:12px;">R</tspan><tspan x="8.68" y="0" style="font-family:'Gotham-UltraItalic'; font-size:12px;">et</tspan><tspan x="23.11" y="0" style="font-family:'Gotham-UltraItalic'; font-size:12px;">une</tspan><tspan x="48.49" y="0" style="font-family:'Gotham-UltraItalic'; font-size:12px;">d</tspan><tspan x="0" y="14.4" style="font-family:'Gotham-UltraItalic'; font-size:12px; letter-spacing:1;">Retuned</tspan><tspan x="0" y="28.8" style="font-family:'Gotham-UltraItalic'; font-size:12px; letter-spacing:1;">Band</tspan></text>
<rect x="-797.57" y="-6.83" style="fill:none;" width="81.35" height="190.46"/>
<text transform="matrix(1 0 0 1 -797.5677 1.5739)"><tspan x="0" y="0" style="font-family:'BebasNeueBold'; font-size:12px; letter-spacing:1;">Retuned</tspan><tspan x="0" y="14.4" style="font-family:'BebasNeueBold'; font-size:12px; letter-spacing:1;">Band</tspan></text>
<g>
	<path d="M-429.43,30.99c-0.96-0.5-2.29-0.76-4.01-0.76h-3.25c-2.52,0-4.74,1.76-5.27,4.2l-6.19,27.85h5.04l2.9-13.07h1.76
		c2.25,0,3.06,1.07,2.37,4.01l-1.99,9.05h5l2.06-9.36c0.65-3.09,0.27-5.31-1.87-6.3c2.45-1.03,3.97-3.21,4.74-6.49l0.53-2.52
		C-426.83,34.24-427.4,32.06-429.43,30.99z M-432.6,37.33l-0.15,0.76l-0.69,3.17c-0.57,2.56-1.91,3.36-3.78,3.36h-1.95l2.18-9.82
		h2.41C-433.02,34.81-432.37,35.58-432.6,37.33z"/>
	<path d="M-415.98,43.74h6.92l-1.01,4.58h-6.92l-2.08,9.39h8.71l-1.01,4.58h-13.75l6.17-27.86c0.54-2.46,2.73-4.21,5.24-4.21h9.43
		l-1.01,4.58H-414L-415.98,43.74z"/>
	<path d="M-398.03,30.22h15.58l-1.01,4.58h-5.27l-5.14,23.19c-0.56,2.51-2.78,4.3-5.35,4.3h-0.64l6.09-27.49h-5.27L-398.03,30.22z"
		/>
	<path d="M-370.85,30.22l-5.48,24.74c-0.51,2.29,0.32,3.12,1.92,3.12c1.6,0,2.79-0.82,3.3-3.12l5.48-24.74h4.76l-5.41,24.42
		c-1.14,5.13-4.35,8.06-9.3,8.06s-6.86-2.93-5.73-8.06l5.41-24.42H-370.85z"/>
	<path d="M-350.3,39.06l-5.14,23.23h-4.54l6.48-29.25c0.37-1.65,1.83-2.82,3.52-2.82l0,0c1.92,0,3.51,1.51,3.6,3.43l0.76,15.77
		l4.25-19.2h4.49l-6.48,29.25c-0.37,1.65-1.83,2.82-3.52,2.82h-2.29L-350.3,39.06z"/>
	<path d="M-326.63,43.74h6.92l-1.01,4.58h-6.92l-2.08,9.39h8.71l-1.01,4.58h-13.75l6.16-27.81c0.55-2.49,2.76-4.26,5.31-4.26h9.38
		l-1.01,4.58h-8.71L-326.63,43.74z"/>
	<path d="M-308.17,34.49c0.55-2.49,2.76-4.27,5.32-4.27h3.6c5.04,0,6.9,2.8,5.76,7.93l-3.59,16.22c-1.14,5.13-4.23,7.93-9.27,7.93
		h-7.97L-308.17,34.49z M-303.19,34.8l-5.07,22.91h2.84c1.6,0,2.75-0.82,3.26-3.12l3.69-16.68c0.51-2.29-0.27-3.12-1.88-3.12
		H-303.19z"/>
</g>
<g>
	<g>
		<path d="M-444.96-63.6h-1.53h-0.4l-1.8,6.65h-7.79l6.26-23.29h9.08c4.29,0,7.02,0.93,8.58,2.5c1.3,1.3,1.83,3.03,1.83,4.86
			c0,2.2-0.67,4.16-2.26,5.76c-1,1-2.36,1.83-4.23,2.43l3.23,7.75h-8.39L-444.96-63.6z M-442.6-69.16c1.53,0,2.66-0.43,3.29-1.06
			c0.43-0.43,0.67-1,0.67-1.6c0-0.47-0.17-0.9-0.5-1.23c-0.43-0.43-1.2-0.67-2.29-0.67h-2.76l-1.23,4.56H-442.6z"/>
		<path d="M-423.15-80.24h19.87l-1.73,6.39h-12.21l-0.63,2.36h11.38l-1.5,5.62h-11.38l-0.7,2.53h12.38l-1.7,6.39h-20.03
			L-423.15-80.24z"/>
		<path d="M-393.22-73.65h-6.85l1.76-6.59h21.5l-1.76,6.59h-6.85l-4.49,16.7h-7.79L-393.22-73.65z"/>
		<path d="M-375.6-64.87c0-1.2,0.17-2.5,0.5-3.76l3.13-11.61h7.92l-3.26,12.11c-0.17,0.67-0.27,1.3-0.27,1.83
			c0,1.93,1.13,2.93,3.19,2.93c0.96,0,1.86-0.33,2.5-0.96c0.7-0.7,1.17-1.6,1.66-3.39l3.36-12.51h7.92l-3.69,13.71
			c-0.83,3.09-2.03,5.36-3.66,6.99c-2.2,2.2-5.52,3.06-9.22,3.06C-372.08-56.48-375.6-59.61-375.6-64.87z"/>
		<path d="M-343.28-80.24h7.29l5.29,11.11l2.99-11.11h7.72l-6.26,23.29h-6.92l-5.52-11.58l-3.13,11.58h-7.72L-343.28-80.24z"/>
		<path d="M-314.11-80.24h19.87l-1.73,6.39h-12.21l-0.63,2.36h11.38l-1.5,5.62h-11.38l-0.7,2.53h12.38l-1.7,6.39h-20.03
			L-314.11-80.24z"/>
		<path d="M-288.38-80.24h8.25c4.52,0,7.35,1.23,9.12,3c1.73,1.73,2.53,3.99,2.53,6.82c0,3.49-1.33,6.69-3.83,9.18
			c-2.8,2.8-6.82,4.29-12.21,4.29h-10.12L-288.38-80.24z M-281.12-73.45h-1.3l-2.6,9.72h1.36c2.36,0,4.39-0.7,5.59-1.9
			c0.97-0.96,1.67-2.53,1.67-3.96c0-1.26-0.37-2.1-0.97-2.69C-278.09-73.02-279.26-73.45-281.12-73.45z"/>
	</g>
	<g>
		<path class="st0" d="M-285.3-48.24h1.53h0.4l1.8-6.65h7.79l-6.26,23.29h-9.08c-4.29,0-7.02-0.93-8.58-2.5
			c-1.3-1.3-1.83-3.03-1.83-4.86c0-2.2,0.67-4.16,2.26-5.76c1-1,2.36-1.83,4.23-2.43l-3.23-7.75h8.39L-285.3-48.24z M-287.67-42.69
			c-1.53,0-2.66,0.43-3.29,1.06c-0.43,0.43-0.67,1-0.67,1.6c0,0.47,0.17,0.9,0.5,1.23c0.43,0.43,1.2,0.67,2.29,0.67h2.76l1.23-4.56
			H-287.67z"/>
		<path class="st0" d="M-307.11-31.6h-19.87l1.73-6.39h12.21l0.63-2.36h-11.38l1.5-5.62h11.38l0.7-2.53h-12.38l1.7-6.39h20.03
			L-307.11-31.6z"/>
		<path class="st0" d="M-337.04-38.19h6.85l-1.76,6.59h-21.5l1.76-6.59h6.85l4.49-16.7h7.79L-337.04-38.19z"/>
		<path class="st0" d="M-354.66-46.98c0,1.2-0.17,2.5-0.5,3.76l-3.13,11.61h-7.92l3.26-12.11c0.17-0.67,0.27-1.3,0.27-1.83
			c0-1.93-1.13-2.93-3.19-2.93c-0.96,0-1.86,0.33-2.5,0.96c-0.7,0.7-1.17,1.6-1.66,3.39l-3.36,12.51h-7.92l3.69-13.71
			c0.83-3.09,2.03-5.36,3.66-6.99c2.2-2.2,5.52-3.06,9.22-3.06C-358.19-55.36-354.66-52.24-354.66-46.98z"/>
		<path class="st0" d="M-386.98-31.6h-7.29l-5.29-11.11l-2.99,11.11h-7.72l6.26-23.29h6.92l5.52,11.58l3.13-11.58h7.72L-386.98-31.6
			z"/>
		<path class="st0" d="M-416.15-31.6h-19.87l1.73-6.39h12.21l0.63-2.36h-11.38l1.5-5.62h11.38l0.7-2.53h-12.38l1.7-6.39h20.03
			L-416.15-31.6z"/>
		<path class="st0" d="M-441.89-31.6h-8.25c-4.52,0-7.35-1.23-9.12-3c-1.73-1.73-2.53-3.99-2.53-6.82c0-3.49,1.33-6.69,3.83-9.18
			c2.8-2.8,6.82-4.29,12.21-4.29h10.12L-441.89-31.6z M-449.14-38.39h1.3l2.6-9.72h-1.36c-2.36,0-4.39,0.7-5.59,1.9
			c-0.97,0.96-1.67,2.53-1.67,3.96c0,1.26,0.37,2.1,0.97,2.69C-452.17-38.83-451-38.39-449.14-38.39z"/>
	</g>
</g>
<g>
	<path d="M-658.65-24.48h-0.55h-0.14l-0.65,2.4h-2.81l2.25-8.4h3.27c1.55,0,2.53,0.34,3.09,0.9c0.47,0.47,0.66,1.09,0.66,1.75
		c0,0.79-0.24,1.5-0.82,2.07c-0.36,0.36-0.85,0.66-1.52,0.88l1.16,2.79h-3.02L-658.65-24.48z"/>
	<path d="M-657.8-26.48c0.55,0,0.96-0.16,1.19-0.38c0.16-0.16,0.24-0.36,0.24-0.58c0-0.17-0.06-0.32-0.18-0.44
		c-0.16-0.16-0.43-0.24-0.83-0.24h-1l-0.44,1.64H-657.8z"/>
	<path d="M-651.87-30.47h15.39l-0.62,2.3h-12.63l-0.23,0.85h4.1l-0.54,2.03h-4.1l-0.25,0.91h4.46l-0.61,2.3h-7.22L-651.87-30.47z"/>
	<path d="M-643.09-28.25l0.71-2.22h2.32l-0.23,2.27l-1.65,6.13h-2.81L-643.09-28.25z"/>
	<path d="M-638.81-24.93c0-0.43,0.06-0.9,0.18-1.35l1.13-4.19h2.85l-1.18,4.37c-0.06,0.24-0.1,0.47-0.1,0.66
		c0,0.7,0.41,1.06,1.15,1.06c0.35,0,0.67-0.12,0.9-0.35c0.25-0.25,0.42-0.58,0.6-1.22l1.21-4.51h2.85l-1.33,4.94
		c-0.3,1.12-0.73,1.93-1.32,2.52c-0.79,0.79-1.99,1.1-3.32,1.1C-637.54-21.91-638.81-23.04-638.81-24.93z"/>
	<path d="M-628.72-30.47h2.63l1.91,4.01l1.08-4.01h2.78l-2.25,8.4h-2.49l-1.99-4.17l-1.13,4.17h-2.78L-628.72-30.47z"/>
	<path d="M-619.77-30.47h7.16l-0.62,2.3h-4.4l-0.23,0.85h4.1l-0.54,2.03h-4.1l-0.25,0.91h4.46l-0.61,2.3h-7.22L-619.77-30.47z"/>
	<path d="M-612.05-30.47h2.97c1.63,0,2.65,0.44,3.29,1.08c0.62,0.62,0.91,1.44,0.91,2.46c0,1.26-0.48,2.41-1.38,3.31
		c-1.01,1.01-2.46,1.55-4.4,1.55h-3.65L-612.05-30.47z M-609.44-28.03h-0.47l-0.94,3.5h0.49c0.85,0,1.58-0.25,2.01-0.68
		c0.35-0.35,0.6-0.91,0.6-1.43c0-0.46-0.13-0.76-0.35-0.97C-608.35-27.87-608.77-28.03-609.44-28.03z"/>
</g>
<g>
	<polygon class="st1" points="-655.39,-27.68 -662.13,-24.79 -660.6,-30.58 	"/>
</g>
<path d="M-660.45-27.03c0.55,0,0.96-0.16,1.19-0.38c0.16-0.16,0.24-0.36,0.24-0.58c0-0.17-0.06-0.32-0.18-0.44
	c-0.16-0.16-0.43-0.24-0.83-0.24h-1l-0.44,1.64H-660.45z"/>
<g>
	<g>
		<path class="st2" d="M-450.68,112.35h-1.53h-0.4l-1.8,6.65h-7.79l6.26-23.29h9.08c4.29,0,7.02,0.93,8.58,2.5
			c1.3,1.3,1.83,3.03,1.83,4.86c0,2.2-0.67,4.16-2.26,5.76c-1,1-2.36,1.83-4.23,2.43l3.23,7.75h-8.39L-450.68,112.35z
			 M-448.32,106.79c1.53,0,2.66-0.43,3.29-1.06c0.43-0.43,0.67-1,0.67-1.6c0-0.47-0.17-0.9-0.5-1.23c-0.43-0.43-1.2-0.67-2.29-0.67
			h-2.76l-1.23,4.56H-448.32z"/>
		<path class="st2" d="M-428.87,95.71H-409l-1.73,6.39h-12.21l-0.63,2.36h11.38l-1.5,5.62h-11.38l-0.7,2.53h12.38l-1.7,6.39h-20.03
			L-428.87,95.71z"/>
		<path class="st2" d="M-398.94,102.3h-6.85l1.76-6.59h21.5l-1.76,6.59h-6.85l-4.49,16.7h-7.79L-398.94,102.3z"/>
		<path class="st2" d="M-381.32,111.08c0-1.2,0.17-2.5,0.5-3.76l3.13-11.61h7.92l-3.26,12.11c-0.17,0.67-0.27,1.3-0.27,1.83
			c0,1.93,1.13,2.93,3.19,2.93c0.96,0,1.86-0.33,2.5-0.96c0.7-0.7,1.17-1.6,1.66-3.39l3.36-12.51h7.92l-3.69,13.71
			c-0.83,3.09-2.03,5.36-3.66,6.99c-2.2,2.2-5.52,3.06-9.22,3.06C-377.8,119.47-381.32,116.34-381.32,111.08z"/>
		<path class="st2" d="M-349,95.71h7.29l5.29,11.11l2.99-11.11h7.72l-6.26,23.29h-6.92l-5.52-11.58l-3.13,11.58h-7.72L-349,95.71z"
			/>
		<path class="st2" d="M-319.83,95.71h19.87l-1.73,6.39h-12.21l-0.63,2.36h11.38l-1.5,5.62h-11.38l-0.7,2.53h12.38l-1.7,6.39h-20.03
			L-319.83,95.71z"/>
		<path class="st2" d="M-294.1,95.71h8.25c4.52,0,7.35,1.23,9.12,3c1.73,1.73,2.53,3.99,2.53,6.82c0,3.49-1.33,6.69-3.83,9.18
			c-2.8,2.8-6.82,4.29-12.21,4.29h-10.12L-294.1,95.71z M-286.84,102.5h-1.3l-2.6,9.72h1.36c2.36,0,4.39-0.7,5.59-1.9
			c0.97-0.96,1.67-2.53,1.67-3.96c0-1.26-0.37-2.1-0.97-2.69C-283.81,102.93-284.98,102.5-286.84,102.5z"/>
	</g>
	<g>
		<path d="M-451.51,111.57h-1.53h-0.4l-1.8,6.65h-7.79l6.26-23.29h9.08c4.29,0,7.02,0.93,8.58,2.5c1.3,1.3,1.83,3.03,1.83,4.86
			c0,2.2-0.67,4.16-2.26,5.76c-1,1-2.36,1.83-4.23,2.43l3.23,7.75h-8.39L-451.51,111.57z M-449.14,106.02
			c1.53,0,2.66-0.43,3.29-1.06c0.43-0.43,0.67-1,0.67-1.6c0-0.47-0.17-0.9-0.5-1.23c-0.43-0.43-1.2-0.67-2.29-0.67h-2.76l-1.23,4.56
			H-449.14z"/>
		<path d="M-429.7,94.94h19.87l-1.73,6.39h-12.21l-0.63,2.36h11.38l-1.5,5.62h-11.38l-0.7,2.53h12.38l-1.7,6.39h-20.03L-429.7,94.94
			z"/>
		<path d="M-399.77,101.53h-6.85l1.76-6.59h21.5l-1.76,6.59h-6.85l-4.49,16.7h-7.79L-399.77,101.53z"/>
		<path d="M-382.15,110.31c0-1.2,0.17-2.5,0.5-3.76l3.13-11.61h7.92l-3.26,12.11c-0.17,0.67-0.27,1.3-0.27,1.83
			c0,1.93,1.13,2.93,3.19,2.93c0.96,0,1.86-0.33,2.5-0.96c0.7-0.7,1.17-1.6,1.66-3.39l3.36-12.51h7.92l-3.69,13.71
			c-0.83,3.09-2.03,5.36-3.66,6.99c-2.2,2.2-5.52,3.06-9.22,3.06C-378.62,118.7-382.15,115.57-382.15,110.31z"/>
		<path d="M-349.83,94.94h7.29l5.29,11.11l2.99-11.11h7.72l-6.26,23.29h-6.92l-5.52-11.58l-3.13,11.58h-7.72L-349.83,94.94z"/>
		<path d="M-320.66,94.94h19.87l-1.73,6.39h-12.21l-0.63,2.36h11.38l-1.5,5.62h-11.38l-0.7,2.53h12.38l-1.7,6.39h-20.03
			L-320.66,94.94z"/>
		<path d="M-294.92,94.94h8.25c4.52,0,7.35,1.23,9.12,3c1.73,1.73,2.53,3.99,2.53,6.82c0,3.49-1.33,6.69-3.83,9.18
			c-2.8,2.8-6.82,4.29-12.21,4.29h-10.12L-294.92,94.94z M-287.67,101.72h-1.3l-2.6,9.72h1.36c2.36,0,4.39-0.7,5.59-1.9
			c0.97-0.96,1.67-2.53,1.67-3.96c0-1.26-0.37-2.1-0.97-2.69C-284.64,102.16-285.81,101.72-287.67,101.72z"/>
	</g>
	<g>
		<path class="st2" d="M-327.83,121.28h5.03c3.49,0,4.33,1.28,4.33,2.68c0,1.38-0.92,2.53-2.66,2.98c1.07,0.28,1.85,1.07,1.85,2.24
			c0,1.91-1.52,3.45-5.42,3.45h-6.18L-327.83,121.28z M-324.58,129.76c0.92,0,1.48-0.41,1.48-0.97c0-0.49-0.41-0.71-1.22-0.71h-1.64
			l-0.45,1.69H-324.58z M-323.58,125.74c0.97,0,1.41-0.44,1.41-0.92c0-0.47-0.36-0.66-1.17-0.66h-1.57l-0.42,1.59H-323.58z"/>
		<path class="st2" d="M-310.74,121.2h3.76l1.72,11.43h-4.04l-0.19-1.52h-3.97l-0.99,1.52h-4.14L-310.74,121.2z M-309.71,128.41
			l-0.31-2.76l-1.77,2.76H-309.71z"/>
		<path class="st2" d="M-300.31,121.28h3.55l2.58,5.42l1.46-5.42h3.76l-3.05,11.35h-3.37l-2.69-5.64l-1.52,5.64h-3.76
			L-300.31,121.28z"/>
		<path class="st2" d="M-286.09,121.28h4.02c2.21,0,3.58,0.6,4.44,1.46c0.84,0.84,1.23,1.95,1.23,3.32c0,1.7-0.65,3.26-1.86,4.48
			c-1.36,1.36-3.33,2.09-5.95,2.09h-4.93L-286.09,121.28z M-282.56,124.59h-0.63l-1.27,4.74h0.66c1.15,0,2.14-0.34,2.72-0.92
			c0.47-0.47,0.81-1.23,0.81-1.93c0-0.62-0.18-1.02-0.47-1.31C-281.08,124.8-281.65,124.59-282.56,124.59z"/>
	</g>
</g>
<g>
	<line class="st3" x1="-621.81" y1="-2.94" x2="-623.44" y2="4.32"/>
	<line class="st3" x1="-624.32" y1="-0.42" x2="-624.81" y2="1.8"/>
	<line class="st3" x1="-626.46" y1="0.53" x2="-626.54" y2="0.85"/>
	<line class="st3" x1="-620.19" y1="-1.55" x2="-621.19" y2="2.93"/>
	<line class="st3" x1="-614.07" y1="-2.94" x2="-615.69" y2="4.32"/>
	<line class="st3" x1="-616.57" y1="-0.42" x2="-617.06" y2="1.8"/>
	<line class="st3" x1="-618.72" y1="0.53" x2="-618.79" y2="0.85"/>
	<line class="st3" x1="-610.97" y1="0.53" x2="-611.04" y2="0.85"/>
	<line class="st3" x1="-612.44" y1="-1.55" x2="-613.44" y2="2.93"/>
</g>
<g>
	<g>
		<path d="M-388.56,17.54c-0.14,0-0.28-0.01-0.42-0.05c-1.03-0.23-1.68-1.25-1.45-2.28l6.21-27.75c0.23-1.03,1.25-1.67,2.28-1.45
			c1.03,0.23,1.68,1.25,1.45,2.28l-6.21,27.75C-386.9,16.94-387.68,17.54-388.56,17.54z"/>
	</g>
	<g>
		<path d="M-393.8,7.89c-0.14,0-0.28-0.01-0.42-0.05c-1.03-0.23-1.68-1.25-1.45-2.28l1.89-8.46c0.23-1.03,1.26-1.67,2.28-1.45
			c1.03,0.23,1.68,1.25,1.45,2.28l-1.89,8.46C-392.14,7.29-392.93,7.89-393.8,7.89z"/>
	</g>
	<g>
		<path d="M-400.39,4.27c-0.14,0-0.28-0.01-0.42-0.05c-1.03-0.23-1.68-1.25-1.45-2.28l0.27-1.22c0.23-1.03,1.27-1.67,2.28-1.45
			c1.03,0.23,1.68,1.25,1.45,2.28l-0.27,1.22C-398.73,3.67-399.52,4.27-400.39,4.27z"/>
	</g>
	<g>
		<path d="M-379.97,12.22c-0.14,0-0.28-0.01-0.42-0.05c-1.03-0.23-1.68-1.25-1.45-2.28l3.83-17.11c0.23-1.03,1.24-1.68,2.28-1.45
			c1.03,0.23,1.68,1.25,1.45,2.28l-3.83,17.11C-378.31,11.61-379.09,12.22-379.97,12.22z"/>
	</g>
	<g>
		<path d="M-358.96,17.54c-0.14,0-0.28-0.01-0.42-0.05c-1.03-0.23-1.68-1.25-1.45-2.28l6.21-27.75c0.23-1.03,1.24-1.67,2.28-1.45
			c1.03,0.23,1.68,1.25,1.45,2.28l-6.21,27.75C-357.29,16.94-358.08,17.54-358.96,17.54z"/>
	</g>
	<g>
		<path d="M-364.2,7.89c-0.14,0-0.28-0.01-0.42-0.05c-1.03-0.23-1.68-1.25-1.45-2.28l1.89-8.46c0.23-1.03,1.26-1.67,2.28-1.45
			c1.03,0.23,1.68,1.25,1.45,2.28l-1.89,8.46C-362.54,7.29-363.32,7.89-364.2,7.89z"/>
	</g>
	<g>
		<path d="M-370.79,4.27c-0.14,0-0.28-0.01-0.42-0.05c-1.03-0.23-1.68-1.25-1.45-2.28l0.27-1.22c0.23-1.03,1.24-1.67,2.28-1.45
			c1.03,0.23,1.68,1.25,1.45,2.28l-0.27,1.22C-369.13,3.67-369.92,4.27-370.79,4.27z"/>
	</g>
	<g>
		<path d="M-341.19,4.27c-0.14,0-0.28-0.01-0.42-0.05c-1.03-0.23-1.68-1.25-1.45-2.28l0.27-1.22c0.23-1.03,1.26-1.67,2.28-1.45
			c1.03,0.23,1.68,1.25,1.45,2.28l-0.27,1.22C-339.53,3.67-340.31,4.27-341.19,4.27z"/>
	</g>
	<g>
		<path d="M-350.37,12.22c-0.14,0-0.28-0.01-0.42-0.05c-1.03-0.23-1.68-1.25-1.45-2.28l3.83-17.11c0.23-1.03,1.25-1.68,2.28-1.45
			c1.03,0.23,1.68,1.25,1.45,2.28l-3.83,17.11C-348.7,11.61-349.49,12.22-350.37,12.22z"/>
	</g>
</g>
<rect x="-641.3" y="197.57" style="fill:none;" width="105.68" height="45.6"/>
<text transform="matrix(1 0 0 1 -641.2973 205.9663)" style="font-family:'MuseoSans-100'; font-size:12px;">retuned</text>
<path d="M38.49,45.12h8.27c2.92,0,4.33-1.46,4.33-3.84s-1.41-3.84-4.33-3.84h-8.27V45.12z M52.9,66.09l-5.16-10.02h-9.24v10.02H23.8
	V25.22h24.04c11.48,0,18,4.77,18,15.96c0,5.35-2.33,9.24-5.59,11.68l7.1,13.24H52.9z"/>
<g>
	<path d="M32.97,215.07h8.27c2.92,0,4.33-1.46,4.33-3.84s-1.41-3.84-4.33-3.84h-8.27V215.07z M47.37,236.04l-5.16-10.02h-9.24v10.02
		H18.28v-40.87h24.04c11.48,0,18,4.77,18,15.96c0,5.35-2.33,9.24-5.59,11.68l7.1,13.24H47.37z"/>
	<polygon points="66.71,195.17 66.71,236.04 104.33,236.04 104.33,224.26 81.41,224.26 81.41,220.32 103.45,220.32 103.45,210.88 
		81.41,210.88 81.41,206.89 104.33,206.89 104.33,195.17 	"/>
	<polygon points="109.65,195.17 109.65,207.43 124.1,207.43 124.1,236.04 138.84,236.04 138.84,207.43 153.34,207.43 153.34,195.17 
			"/>
	<path d="M158.62,217.94v-22.77h14.84v22.43c0,4.57,1.9,7.49,6.81,7.49c4.91,0,6.91-2.92,6.91-7.49v-22.43h14.74v22.67
		c0,13.53-7.1,19.56-21.65,19.56C165.73,237.4,158.62,231.37,158.62,217.94"/>
	<polygon points="237.42,195.17 237.42,215.46 236.05,215.46 224.28,195.17 207.45,195.17 207.45,236.04 221.8,236.04 221.8,215.75 
		223.11,215.75 235.28,236.04 251.77,236.04 251.77,195.17 	"/>
	<polygon points="257.29,195.17 257.29,236.04 294.9,236.04 294.9,224.26 271.99,224.26 271.99,220.32 294.03,220.32 294.03,210.88 
		271.99,210.88 271.99,206.89 294.9,206.89 294.9,195.17 	"/>
	<path d="M329.47,215.6c0-6.13-3.55-8.12-7.88-8.12h-6.33l-0.05,16.25h6.37C325.92,223.73,329.47,221.68,329.47,215.6 M344.26,215.6
		c0,11.78-5.79,20.43-22.67,20.43h-21.12v-40.87h21.12C338.47,195.17,344.26,203.78,344.26,215.6"/>
</g>
</svg>
